solid
 facet normal -1.00000000000000 0.00000000000000 -0.00000000000000
  outer loop
   vertex -876.29999999999995 1009.65000000000010 1215.63989049402080
   vertex -876.29999999999995 1009.65000000000010 0.00000000000000
   vertex -876.29999999999995 -1041.40000000002740 0.00000000000000
  endloop
 endfacet
 facet normal -1.00000000000000 0.00000000000000 0.00000000000000
  outer loop
   vertex -876.29999999999995 -1041.40000000002740 0.00000000000000
   vertex -876.29999999999995 -1041.40000000002760 1215.63989049402080
   vertex -876.29999999999995 1009.65000000000010 1215.63989049402080
  endloop
 endfacet
 facet normal -0.00000000000000 1.00000000000000 0.00000000000000
  outer loop
   vertex -876.29999999999995 1009.64999999999990 1215.63989049402080
   vertex 927.09999999999991 1009.64999999999990 1215.63989049402080
   vertex 927.09999999999980 1009.64999999999990 0.00000000000000
  endloop
 endfacet
 facet normal 0.00000000000000 1.00000000000000 0.00000000000000
  outer loop
   vertex 927.09999999999980 1009.64999999999990 0.00000000000000
   vertex -876.29999999999995 1009.64999999999990 0.00000000000000
   vertex -876.29999999999995 1009.64999999999990 1215.63989049402080
  endloop
 endfacet
 facet normal 1.00000000000000 0.00000000000000 0.00000000000000
  outer loop
   vertex 927.09999999999991 1009.64999999999990 1215.63989049402080
   vertex 927.09999999999991 -1041.40000000002780 1215.63989049402080
   vertex 927.09999999999991 -1041.40000000002780 0.00000000000000
  endloop
 endfacet
 facet normal 1.00000000000000 0.00000000000000 0.00000000000000
  outer loop
   vertex 927.09999999999991 -1041.40000000002780 0.00000000000000
   vertex 927.09999999999991 1009.64999999999990 0.00000000000000
   vertex 927.09999999999991 1009.64999999999990 1215.63989049402080
  endloop
 endfacet
 facet normal 0.00000000000000 -0.00000000000000 -1.00000000000000
  outer loop
   vertex 927.09999999999980 1009.64999999999990 0.00000000000000
   vertex 927.09999999999991 -1041.40000000002760 0.00000000000000
   vertex -876.29999999999995 -1041.40000000002740 0.00000000000000
  endloop
 endfacet
endsolid
 
solid
 facet normal 0.00000000000000 0.00000000000000 -1.00000000000000
  outer loop
   vertex -876.29999999999995 -1041.40000000002740 0.00000000000000
   vertex -876.29999999999995 1009.64999999999990 0.00000000000000
   vertex 927.09999999999980 1009.64999999999990 0.00000000000000
  endloop
 endfacet
 facet normal -0.00000000000000 -1.00000000000000 0.00000000000000
  outer loop
   vertex 927.09999999999991 -1041.40000000002760 1215.63989049402080
   vertex -876.29999999999995 -1041.40000000002740 1215.63989049402080
   vertex -876.29999999999995 -1041.40000000002740 0.00000000000000
  endloop
 endfacet
 facet normal -0.00000000000000 -1.00000000000000 0.00000000000000
  outer loop
   vertex -876.29999999999995 -1041.40000000002740 0.00000000000000
   vertex 927.09999999999991 -1041.40000000002760 0.00000000000000
   vertex 927.09999999999991 -1041.40000000002760 1215.63989049402080
  endloop
 endfacet
 facet normal 0.00000000000000 0.00000000000000 1.00000000000000
  outer loop
   vertex 927.09999999999991 1009.64999999999990 1215.63989049402080
   vertex -876.29999999999995 1009.64999999999990 1215.63989049402080
   vertex -876.29999999999995 -1041.40000000002760 1215.63989049402080
  endloop
 endfacet
 facet normal -0.00000000000000 0.00000000000000 1.00000000000000
  outer loop
   vertex -876.29999999999995 -1041.40000000002760 1215.63989049402080
   vertex 927.09999999999991 -1041.40000000002780 1215.63989049402080
   vertex 927.09999999999991 1009.64999999999990 1215.63989049402080
  endloop
 endfacet
endsolid